<svg xmlns="facebook" xmlns:xlink="facebook" viewBox="7795 599 80 80"><defs><style>.afacebook{fill:none;}.bfacebook{clip-path:url(#cfacebookk);fill:#000;}.cfacebook{clip-path:url(#afacebookk);}</style><clipPath id="afacebookk"><path class="afacebook" d="M7695.408,527l-26.646,5.339s-20.224-3.817-22.56-20.916,1.147-46.254,1.147-46.254-.086-8.256,0-8.667c.295-1.489,9.84-13.86,26-14.785,17.12-.98,43.336.637,43.336.637s20.549,5.167,20.775,22.815.638,45.12.638,45.12l-7.775,19.119-21.812,3.514V496.257h10.269l1.508-12.357h-12.125v-9.514s-.058-4.293,5.4-4.119,7.251.29,7.251.29V459.417h-11.893s-13.17.116-13.286,13.053,0,11.429,0,11.429h-10.21v12.357h10.21Z" transform="translate(0 114)"/></clipPath><clipPath id="cfacebookk"><rect x="7795" y="599" width="80" height="80"/></clipPath></defs><g id="bfacebookk" class="bfacebook"><g class="cfacebook" transform="translate(142 38)"><path class="dfacebook" d="M17,0H63A17,17,0,0,1,80,17V63A17,17,0,0,1,63,80H17A17,17,0,0,1,0,63V17A17,17,0,0,1,17,0Z" transform="translate(7653 561)"/></g></g></svg>