<svg xmlns="http://www.w3.org/2000/svg" xmlns:xlink="http://www.w3.org/1999/xlink" viewBox="3473 2274 699 772"><defs><style>.aa{fill:none;stroke:#707070;}.bb{clip-path:url(#cc);}.cc{clip-path:url(#a);}.dd{fill:#de617a;}.ee{fill:#f297d1;}.ff{fill:#7c4f89;}.gg{fill:#cd97c4;}</style><clipPath id="aa"><path class="aa" d="M1240.291,1336.333h704.353l-704.353-770.25Z" transform="translate(-1240.074 -197)"/></clipPath><clipPath id="cc"><rect x="3473" y="2274" width="699" height="772"/></clipPath></defs><g id="bb" class="bb"><g class="cc" transform="translate(3470 1911)"><g transform="translate(-1053.422 791.323) rotate(-45)"><g transform="translate(0.048 28.295)"><path class="dd" d="M108.74.2a21.933,21.933,0,0,1,23,23L51.65,2348.788a25.9,25.9,0,0,1-24.641,24.64,21.933,21.933,0,0,1-23-23L84.1,24.841A25.9,25.9,0,0,1,108.74.2Z" transform="translate(0.008 4.716)"/><path class="ee" d="M108.74.2a21.933,21.933,0,0,1,23,23L51.65,2348.788a25.9,25.9,0,0,1-24.641,24.64,21.933,21.933,0,0,1-23-23L84.1,24.841A25.9,25.9,0,0,1,108.74.2Z" transform="translate(130.502 0.222)"/></g><g transform="translate(261.036 19.307)"><path class="dd" d="M108.74.2a21.933,21.933,0,0,1,23,23L51.65,2348.788a25.9,25.9,0,0,1-24.641,24.64,21.933,21.933,0,0,1-23-23L84.1,24.841A25.9,25.9,0,0,1,108.74.2Z" transform="translate(0.008 4.716)"/><path class="ee" d="M108.74.2a21.933,21.933,0,0,1,23,23L51.65,2348.788a25.9,25.9,0,0,1-24.641,24.64,21.933,21.933,0,0,1-23-23L84.1,24.841A25.9,25.9,0,0,1,108.74.2Z" transform="translate(130.502 0.222)"/></g><g transform="translate(522.024 10.318)"><path class="dd" d="M108.74.2a21.933,21.933,0,0,1,23,23L51.65,2348.788a25.9,25.9,0,0,1-24.641,24.64,21.933,21.933,0,0,1-23-23L84.1,24.841A25.9,25.9,0,0,1,108.74.2Z" transform="translate(0.008 4.716)"/><path class="ff" d="M108.74.2a21.933,21.933,0,0,1,23,23L51.65,2348.788a25.9,25.9,0,0,1-24.641,24.64,21.933,21.933,0,0,1-23-23L84.1,24.841A25.9,25.9,0,0,1,108.74.2Z" transform="translate(130.502 0.222)"/></g><g transform="translate(783.012 1.33)"><path class="dd" d="M108.74.2a21.933,21.933,0,0,1,23,23L51.65,2348.788a25.9,25.9,0,0,1-24.641,24.64,21.933,21.933,0,0,1-23-23L84.1,24.841A25.9,25.9,0,0,1,108.74.2Z" transform="translate(0.008 4.716)"/><path class="gg" d="M108.74.2a21.933,21.933,0,0,1,23,23L51.65,2348.788a25.9,25.9,0,0,1-24.641,24.64,21.933,21.933,0,0,1-23-23L84.1,24.841A25.9,25.9,0,0,1,108.74.2Z" transform="translate(130.502 0.222)"/></g></g></g></g></svg>