<svg xmlns="http://www.w3.org/2000/svg" viewBox="13118.269 3256.896 606.58 416.699"><defs><style>.adots2{fill:#fff;}</style></defs><ellipse class="adots2" cx="37.401" cy="49.117" rx="37.401" ry="49.117" transform="matrix(0.899, 0.438, -0.438, 0.899, 13595.763, 3405.985)"/><ellipse class="adots2" cx="33.346" cy="37.852" rx="33.346" ry="37.852" transform="translate(13445.471 3457.15) rotate(7)"/><ellipse class="adots2" cx="42.809" cy="40.555" rx="42.809" ry="40.555" transform="translate(13649.253 3527.266) rotate(28)"/><ellipse class="adots2" cx="37.401" cy="49.117" rx="37.401" ry="49.117" transform="matrix(0.899, 0.438, -0.438, 0.899, 13311.874, 3396.972)"/><ellipse class="adots2" cx="33.346" cy="37.852" rx="33.346" ry="37.852" transform="matrix(0.899, 0.438, -0.438, 0.899, 13301.961, 3576.318)"/><ellipse class="adots2" cx="33.346" cy="37.852" rx="33.346" ry="37.852" transform="translate(13388.693 3271.496) rotate(7)"/><ellipse class="adots2" cx="42.809" cy="40.555" rx="42.809" ry="40.555" transform="translate(13248.204 3256.896) rotate(28)"/><ellipse class="adots2" cx="33.346" cy="37.852" rx="33.346" ry="37.852" transform="matrix(0.899, 0.438, -0.438, 0.899, 13151.455, 3442.935)"/></svg>