<svg xmlns="dotted" xmlns:xlink="dotted" viewBox="10737 2323 1139 924"><defs><style>.adotted{clip-path:url(#bdottedd);}.bdotted{fill:#fff;stroke:#fff;stroke-width:5px;}.cdotted{stroke:none;}.ddotted{fill:none;}</style><clipPath id="bdottedd"><rect x="10737" y="2323" width="1139" height="924"/></clipPath></defs><g id="adottedd" class="adotted"><g transform="translate(2633 -818)"><g class="bdotted" transform="matrix(0.899, 0.438, -0.438, 0.899, 8798.059, 3638.762)"><ellipse class="cdotted" cx="37.401" cy="49.117" rx="37.401" ry="49.117"/><ellipse class="ddotted" cx="37.401" cy="49.117" rx="35.901" ry="47.617"/></g><g class="bdotted" transform="translate(8748.809 3817.722) rotate(28)"><ellipse class="cdotted" cx="42.809" cy="40.555" rx="42.809" ry="40.555"/><ellipse class="ddotted" cx="42.809" cy="40.555" rx="41.309" ry="39.055"/></g><g transform="translate(8104.269 3140.896)"><g class="bdotted" transform="translate(375.973 346.975) rotate(28)"><ellipse class="cdotted" cx="42.809" cy="40.555" rx="42.809" ry="40.555"/><ellipse class="ddotted" cx="42.809" cy="40.555" rx="41.309" ry="39.055"/></g><g class="bdotted" transform="matrix(0.899, 0.438, -0.438, 0.899, 477.494, 149.088)"><ellipse class="cdotted" cx="37.401" cy="49.117" rx="37.401" ry="49.117"/><ellipse class="ddotted" cx="37.401" cy="49.117" rx="35.901" ry="47.617"/></g><g class="bdotted" transform="matrix(0.899, 0.438, -0.438, 0.899, 250.384, 474.434)"><ellipse class="cdotted" cx="37.401" cy="49.117" rx="37.401" ry="49.117"/><ellipse class="ddotted" cx="37.401" cy="49.117" rx="35.901" ry="47.617"/></g><g class="bdotted" transform="matrix(0.899, 0.438, -0.438, 0.899, 443.247, 497.866)"><ellipse class="cdotted" cx="33.346" cy="37.852" rx="33.346" ry="37.852"/><ellipse class="ddotted" cx="33.346" cy="37.852" rx="31.846" ry="36.352"/></g><g class="bdotted" transform="translate(558.819 486.846) rotate(7)"><ellipse class="cdotted" cx="33.346" cy="37.852" rx="33.346" ry="37.852"/><ellipse class="ddotted" cx="33.346" cy="37.852" rx="31.846" ry="36.352"/></g><g class="bdotted" transform="translate(327.202 200.254) rotate(7)"><ellipse class="cdotted" cx="33.346" cy="37.852" rx="33.346" ry="37.852"/><ellipse class="ddotted" cx="33.346" cy="37.852" rx="31.846" ry="36.352"/></g><g class="bdotted" transform="translate(530.985 270.37) rotate(28)"><ellipse class="cdotted" cx="42.809" cy="40.555" rx="42.809" ry="40.555"/><ellipse class="ddotted" cx="42.809" cy="40.555" rx="41.309" ry="39.055"/></g><g class="bdotted" transform="matrix(0.899, 0.438, -0.438, 0.899, 193.606, 140.076)"><ellipse class="cdotted" cx="37.401" cy="49.117" rx="37.401" ry="49.117"/><ellipse class="ddotted" cx="37.401" cy="49.117" rx="35.901" ry="47.617"/></g><g class="bdotted" transform="matrix(0.899, 0.438, -0.438, 0.899, 183.692, 319.421)"><ellipse class="cdotted" cx="33.346" cy="37.852" rx="33.346" ry="37.852"/><ellipse class="ddotted" cx="33.346" cy="37.852" rx="31.846" ry="36.352"/></g><g class="bdotted" transform="translate(270.425 14.6) rotate(7)"><ellipse class="cdotted" cx="33.346" cy="37.852" rx="33.346" ry="37.852"/><ellipse class="ddotted" cx="33.346" cy="37.852" rx="31.846" ry="36.352"/></g><g class="bdotted" transform="translate(129.936) rotate(28)"><ellipse class="cdotted" cx="42.809" cy="40.555" rx="42.809" ry="40.555"/><ellipse class="ddotted" cx="42.809" cy="40.555" rx="41.309" ry="39.055"/></g><g class="bdotted" transform="matrix(0.899, 0.438, -0.438, 0.899, 33.186, 186.039)"><ellipse class="cdotted" cx="33.346" cy="37.852" rx="33.346" ry="37.852"/><ellipse class="ddotted" cx="33.346" cy="37.852" rx="31.846" ry="36.352"/></g><g class="bdotted" transform="translate(790.436 375.093) rotate(7)"><ellipse class="cdotted" cx="33.346" cy="37.852" rx="33.346" ry="37.852"/><ellipse class="ddotted" cx="33.346" cy="37.852" rx="31.846" ry="36.352"/></g><g class="bdotted" transform="matrix(0.899, 0.438, -0.438, 0.899, 852.407, 657.384)"><ellipse class="cdotted" cx="33.346" cy="37.852" rx="33.346" ry="37.852"/><ellipse class="ddotted" cx="33.346" cy="37.852" rx="31.846" ry="36.352"/></g><g class="bdotted" transform="translate(950.058 472.246) rotate(28)"><ellipse class="cdotted" cx="42.809" cy="40.555" rx="42.809" ry="40.555"/><ellipse class="ddotted" cx="42.809" cy="40.555" rx="41.309" ry="39.055"/></g><g class="bdotted" transform="matrix(0.899, 0.438, -0.438, 0.899, 909.185, 803.384)"><ellipse class="cdotted" cx="37.401" cy="49.117" rx="37.401" ry="49.117"/><ellipse class="ddotted" cx="37.401" cy="49.117" rx="35.901" ry="47.617"/></g><g class="bdotted" transform="translate(1063.614 642.579) rotate(28)"><ellipse class="cdotted" cx="42.809" cy="40.555" rx="42.809" ry="40.555"/><ellipse class="ddotted" cx="42.809" cy="40.555" rx="41.309" ry="39.055"/></g></g></g></g></svg>