<svg xmlns="logowhite" xmlns:xlink="logowhite" viewBox="5574 57 1088 821"><defs><style>.alogowhite{clip-path:url(#blogowhitee);}.blogowhite{fill:#de617a;font-size:150px;font-family:Lato-Bold, Lato;font-weight:700;}.clogowhite,.glogowhite,.hlogowhite,.ilogowhite,.nlogowhite{fill:#fff;}.dlogowhite{fill:#000;}.elogowhite{font-size:100px;font-family:JustAnotherHand-Regular, Just Another Hand;letter-spacing:0.1em;font-weight:400;}.flogowhite,.jlogowhite,.klogowhite,.mlogowhite{fill:none;}.flogowhite,.glogowhite,.ilogowhite,.jlogowhite{stroke:#fff;}.flogowhite{stroke-width:6px;}.glogowhite{stroke-width:2px;}.ilogowhite,.jlogowhite{stroke-width:4px;}.llogowhite,.nlogowhite,.ologowhite{stroke:none;}</style><clipPath id="blogowhitee"><rect x="5574" y="57" width="1088" height="821"/></clipPath></defs><g id="alogowhitee" class="alogowhite"><text class="blogowhite" transform="translate(5556 402)"><tspan class="clogowhite" x="15.438" y="148">PROSTOWANIE </tspan><tspan class="clogowhite" x="38.05" y="293">KERATYNOWE</tspan><tspan class="dlogowhite" y="293"> </tspan><tspan class="elogowhite"><tspan x="310.564" y="438">styled with style</tspan></tspan></text><g transform="translate(5943 57)"><g transform="translate(6 0.031)"><g transform="translate(0 0)"><path class="flogowhite" d="M248.149,2443.959s153.028-28,203.852-55.065c23.252-12.38,10.057-35.017-26.558-35.692-75.212-1.39-177.756,48.321-228.389,50.049-22.488.767-40.206-12.6-35.694-41.108,3.562-19.466,16.772-24.782,29.629-30.385,27.064-11.8,28.8-20.58,28.8-20.58" transform="translate(-160.654 -2129.076)"/><g class="glogowhite" transform="matrix(0.799, -0.602, 0.602, 0.799, 55.362, 163.926)"><rect class="llogowhite" width="272.385" height="22.594" rx="11.297"/><rect class="mlogowhite" x="1" y="1" width="270.385" height="20.594" rx="10.297"/></g><g class="hlogowhite" transform="translate(66.117 171.947)"><path class="llogowhite" d="M 261.0882263183594 21.59419822692871 L 11.29710674285889 21.59419822692871 C 5.61924934387207 21.59419822692871 0.9999993443489075 16.97494888305664 0.9999993443489075 11.29709148406982 C 0.9999993443489075 5.619234561920166 5.61924934387207 0.9999843239784241 11.29710674285889 0.9999843239784241 L 261.0882263183594 0.9999843239784241 C 266.7660217285156 0.9999843239784241 271.3852844238281 5.619234561920166 271.3852844238281 11.29709148406982 C 271.3852844238281 16.97494888305664 266.7660217285156 21.59419822692871 261.0882263183594 21.59419822692871 Z"/><path class="nlogowhite" d="M 261.0882263183594 20.59419822692871 C 266.2146301269531 20.59419822692871 270.3852844238281 16.42351913452148 270.3852844238281 11.29709148406982 C 270.3852844238281 6.170662879943848 266.2146301269531 1.999984383583069 261.0882263183594 1.999984383583069 L 11.29710674285889 1.999984383583069 C 6.17067813873291 1.999984383583069 1.999999403953552 6.170662879943848 1.999999403953552 11.29709148406982 C 1.999999403953552 16.42351913452148 6.17067813873291 20.59419822692871 11.29710674285889 20.59419822692871 L 261.0882263183594 20.59419822692871 M 261.0882263183594 22.59419822692871 L 11.29710674285889 22.59419822692871 C 5.057892322540283 22.59419822692871 -6.4522873799433e-07 17.53630638122559 -6.4522873799433e-07 11.29709148406982 C -6.4522873799433e-07 5.057877063751221 5.057892322540283 -1.565878665132914e-05 11.29710674285889 -1.565878665132914e-05 L 261.0882263183594 -1.565878665132914e-05 C 267.3273620605469 -1.565878665132914e-05 272.3852844238281 5.057877063751221 272.3852844238281 11.29709148406982 C 272.3852844238281 17.53630638122559 267.3273620605469 22.59419822692871 261.0882263183594 22.59419822692871 Z"/></g><g class="hlogowhite" transform="translate(55.447 153.119)"><path class="llogowhite" d="M 21 40 C 15.92492008209229 40 11.15359973907471 38.02365875244141 7.564970016479492 34.43503189086914 C 3.976340055465698 30.84639930725098 2 26.07508087158203 2 21 C 2 15.92492008209229 3.976340055465698 11.15359973907471 7.564970016479492 7.564970016479492 C 11.15359973907471 3.976340055465698 15.92492008209229 2 21 2 C 26.07508087158203 2 30.84639930725098 3.976340055465698 34.43503189086914 7.564970016479492 C 38.02365875244141 11.15359973907471 40 15.92492008209229 40 21 C 40 26.07508087158203 38.02365875244141 30.84639930725098 34.43503189086914 34.43503189086914 C 30.84639930725098 38.02365875244141 26.07508087158203 40 21 40 Z"/><path class="ologowhite" d="M 21 38 C 25.54085922241211 38 29.80994033813477 36.231689453125 33.02082061767578 33.02082061767578 C 36.231689453125 29.80994033813477 38 25.54085922241211 38 21 C 38 16.45914077758789 36.231689453125 12.19005966186523 33.02082061767578 8.979180335998535 C 29.80994033813477 5.768310070037842 25.54085922241211 4 21 4 C 16.45914077758789 4 12.19005966186523 5.768310070037842 8.979180335998535 8.979180335998535 C 5.768310070037842 12.19005966186523 4 16.45914077758789 4 21 C 4 25.54085922241211 5.768310070037842 29.80994033813477 8.979180335998535 33.02082061767578 C 12.19005966186523 36.231689453125 16.45914077758789 38 21 38 M 21 42 C 9.402020454406738 42 0 32.59798049926758 0 21 C 0 9.402020454406738 9.402020454406738 0 21 0 C 32.59798049926758 0 42 9.402020454406738 42 21 C 42 32.59798049926758 32.59798049926758 42 21 42 Z"/></g><g class="hlogowhite" transform="matrix(0.174, 0.985, -0.985, 0.174, 62.903, 295.087)"><path class="llogowhite" d="M2.255,0h45.7a2.255,2.255,0,0,1,0,4.51H2.255a2.255,2.255,0,0,1,0-4.51Z"/><path class="nlogowhite" d="M 47.95405578613281 4.510471343994141 L 2.255232334136963 4.510471343994141 C 1.00970733165741 4.510471343994141 -5.22460959473392e-06 3.500758647918701 -5.22460959473392e-06 2.255233764648438 C -5.22460959473392e-06 1.009708762168884 1.00970733165741 -3.735351583600277e-06 2.255232334136963 -3.735351583600277e-06 L 47.95405578613281 -3.735351583600277e-06 C 49.1995964050293 -3.735351583600277e-06 50.20929336547852 1.009708762168884 50.20929336547852 2.255233764648438 C 50.20929336547852 3.500758647918701 49.1995964050293 4.510471343994141 47.95405578613281 4.510471343994141 Z"/></g><g transform="matrix(0.985, -0.174, 0.174, 0.985, 40.868, 314.115)"><g class="ilogowhite" transform="translate(0.174 -0.985)"><rect class="llogowhite" width="23.849" height="4.51" rx="2.255"/><rect class="mlogowhite" x="2" y="2" width="19.849" height="0.51" rx="0.255"/></g><g class="ilogowhite" transform="translate(-0.811 14.532)"><rect class="llogowhite" width="23.849" height="4.51" rx="2.255"/><rect class="mlogowhite" x="2" y="2" width="19.849" height="0.51" rx="0.255"/></g></g><path class="jlogowhite" d="M33.824,165.91c8.753-1.036,10.927-2.651,15.795-.941,5.322,1.867,8.718,7.558,9.291,10.633a16.2,16.2,0,0,1-2.477,12.285c-3.143,4.434-7.293,3.716-17.963,5.781" transform="translate(29.28 139.304)"/></g></g><g class="klogowhite" transform="translate(214.615 161.418)"><path class="llogowhite" d="M11.838,0h98.344a11.838,11.838,0,1,1,0,23.675H11.838A11.838,11.838,0,0,1,11.838,0Z"/><path class="nlogowhite" d="M 110.1817932128906 19.67543411254883 C 114.503532409668 19.67543411254883 118.0195159912109 16.15945243835449 118.0195159912109 11.83771324157715 C 118.0195159912109 7.515973091125488 114.503532409668 3.999993324279785 110.1817932128906 3.999993324279785 L 11.83771419525146 3.999993324279785 C 7.515974044799805 3.999993324279785 3.999994277954102 7.515973091125488 3.999994277954102 11.83771324157715 C 3.999994277954102 16.15945243835449 7.515974044799805 19.67543411254883 11.83771419525146 19.67543411254883 L 110.1817932128906 19.67543411254883 M 110.1817932128906 23.67543411254883 L 11.83771419525146 23.67543411254883 C 5.299934387207031 23.67543411254883 -5.819091711600777e-06 18.3754940032959 -5.819091711600777e-06 11.83771324157715 C -5.819091711600777e-06 5.299933433532715 5.299934387207031 -6.758422841812717e-06 11.83771419525146 -6.758422841812717e-06 L 110.1817932128906 -6.758422841812717e-06 C 116.7195739746094 -6.758422841812717e-06 122.0195159912109 5.299933433532715 122.0195159912109 11.83771324157715 C 122.0195159912109 18.3754940032959 116.7195739746094 23.67543411254883 110.1817932128906 23.67543411254883 Z"/></g><g class="klogowhite" transform="translate(180.532 85.247) rotate(-37)"><path class="llogowhite" d="M11.838,0h98.344a11.838,11.838,0,1,1,0,23.675H11.838A11.838,11.838,0,0,1,11.838,0Z"/><path class="nlogowhite" d="M 110.1817932128906 19.67543411254883 C 114.503532409668 19.67543411254883 118.0195159912109 16.15945243835449 118.0195159912109 11.83771324157715 C 118.0195159912109 7.515973091125488 114.503532409668 3.999993324279785 110.1817932128906 3.999993324279785 L 11.83771419525146 3.999993324279785 C 7.515974044799805 3.999993324279785 3.999994277954102 7.515973091125488 3.999994277954102 11.83771324157715 C 3.999994277954102 16.15945243835449 7.515974044799805 19.67543411254883 11.83771419525146 19.67543411254883 L 110.1817932128906 19.67543411254883 M 110.1817932128906 23.67543411254883 L 11.83771419525146 23.67543411254883 C 5.299934387207031 23.67543411254883 -5.819091711600777e-06 18.3754940032959 -5.819091711600777e-06 11.83771324157715 C -5.819091711600777e-06 5.299933433532715 5.299934387207031 -6.758422841812717e-06 11.83771419525146 -6.758422841812717e-06 L 110.1817932128906 -6.758422841812717e-06 C 116.7195739746094 -6.758422841812717e-06 122.0195159912109 5.299933433532715 122.0195159912109 11.83771324157715 C 122.0195159912109 18.3754940032959 116.7195739746094 23.67543411254883 110.1817932128906 23.67543411254883 Z"/></g></g></g></svg>